0
SECTION
2
HEADER
9
$INSUNITS
70
4
9
$ACADVER
1
AC1014
9
$HANDSEED
5
FFFF
0
ENDSEC
0
SECTION
2
TABLES
0
TABLE
2
VPORT
5
8
100
AcDbSymbolTable
0
ENDTAB
0
TABLE
2
LTYPE
5
5
100
AcDbSymbolTable
0
LTYPE
5
14
100
AcDbSymbolTableRecord
100
AcDbLinetypeTableRecord
2
BYBLOCK
70
0
0
LTYPE
5
15
100
AcDbSymbolTableRecord
100
AcDbLinetypeTableRecord
2
BYLAYER
70
0
0
ENDTAB
0
TABLE
2
LAYER
5
2
100
AcDbSymbolTable
70
2
0
LAYER
5
50
100
AcDbSymbolTableRecord
100
AcDbLayerTableRecord
2
0
70
0
6
CONTINUOUS
0
ENDTAB
0
TABLE
2
STYLE
5
3
100
AcDbSymbolTable
70
1
0
STYLE
5
11
100
AcDbSymbolTableRecord
100
AcDbTextStyleTableRecord
2
STANDARD
70
0
0
ENDTAB
0
TABLE
2
VIEW
5
6
100
AcDbSymbolTable
70
0
0
ENDTAB
0
TABLE
2
UCS
5
7
100
AcDbSymbolTable
70
0
0
ENDTAB
0
TABLE
2
APPID
5
9
100
AcDbSymbolTable
70
2
0
APPID
5
12
100
AcDbSymbolTableRecord
100
AcDbRegAppTableRecord
2
ACAD
70
0
0
ENDTAB
0
TABLE
2
DIMSTYLE
5
A
100
AcDbSymbolTable
70
1
0
ENDTAB
0
TABLE
2
BLOCK_RECORD
5
1
100
AcDbSymbolTable
70
1
0
BLOCK_RECORD
5
1F
100
AcDbSymbolTableRecord
100
AcDbBlockTableRecord
2
*MODEL_SPACE
0
BLOCK_RECORD
5
1B
100
AcDbSymbolTableRecord
100
AcDbBlockTableRecord
2
*PAPER_SPACE
0
ENDTAB
0
ENDSEC
0
SECTION
2
BLOCKS
0
BLOCK
5
20
100
AcDbEntity
100
AcDbBlockBegin
2
*MODEL_SPACE
0
ENDBLK
5
21
100
AcDbEntity
100
AcDbBlockEnd
0
BLOCK
5
1C
100
AcDbEntity
100
AcDbBlockBegin
2
*PAPER_SPACE
0
ENDBLK
5
1D
100
AcDbEntity
100
AcDbBlockEnd
0
ENDSEC
0
SECTION
2
ENTITIES
0
LINE
5
100
100
AcDbEntity
8
0
100
AcDbLine
10
-23.813858648038135
20
74.868121060948994
30
0
11
-18.288550891866763
21
74.868066353808658
31
0
0
LINE
5
101
100
AcDbEntity
8
0
100
AcDbLine
10
-16.28857069435146
20
72.868046551519996
30
0
11
-16.288719706573513
21
57.818121060948933
31
0
0
LINE
5
102
100
AcDbEntity
8
0
100
AcDbLine
10
-14.288719706671525
20
55.818101258562237
30
0
11
-13.525638116236271
21
55.818101258516528
31
0
0
LINE
5
103
100
AcDbEntity
8
0
100
AcDbLine
10
-11.52563811623793
20
53.818101258518205
30
0
11
-11.525638116251383
21
38.768061656116423
31
0
0
LINE
5
104
100
AcDbEntity
8
0
100
AcDbLine
10
-9.5256381162514554
20
36.768061656116522
30
0
11
-4.0013388456240344
21
36.768061656116558
31
0
0
ARC
5
105
100
AcDbEntity
8
0
100
AcDbCircle
10
-23.813838845651453
20
76.868121060850825
30
0
40
2.0000000000000107
210
0
220
0
230
1
100
AcDbArc
50
180
51
269.99943270340941
0
ARC
5
106
100
AcDbEntity
8
0
100
AcDbCircle
10
-18.288570694253444
20
72.86806635390657
30
0
40
2.000000000000016
210
-0
220
0
230
1
100
AcDbArc
50
-0.00056729645077722654
51
89.99943270340944
0
ARC
5
107
100
AcDbEntity
8
0
100
AcDbCircle
10
-14.288719706671536
20
57.818101258562251
30
0
40
2.0000000000000115
210
0
220
0
230
1
100
AcDbArc
50
179.99943270354925
51
270.00000000000034
0
ARC
5
108
100
AcDbEntity
8
0
100
AcDbCircle
10
-13.525638116236259
20
53.818101258518197
30
0
40
1.9999999999983276
210
-0
220
0
230
1
100
AcDbArc
50
0
51
90.000000000000369
0
ARC
5
109
100
AcDbEntity
8
0
100
AcDbCircle
10
-9.5256381162514696
20
38.768061656116437
30
0
40
1.999999999999913
210
0
220
0
230
1
100
AcDbArc
50
180
51
270.0000000000004
0
ARC
5
110
100
AcDbEntity
8
0
100
AcDbCircle
10
-4.001338845624022
20
34.768061656143892
30
0
40
1.9999999999726685
210
-0
220
0
230
1
100
AcDbArc
50
0
51
90.000000000000369
0
ARC
5
111
100
AcDbEntity
8
0
100
AcDbCircle
10
-0.0013388456511406743
20
0.66806165606553369
30
0
40
1.9999999999999964
210
0
220
0
230
1
100
AcDbArc
50
180
51
270
0
LINE
5
112
100
AcDbEntity
8
0
100
AcDbLine
10
44.68666388024829
20
0.6680705086630756
30
0
11
44.68666388024829
21
2.6680842193622349
31
0
0
LINE
5
113
100
AcDbEntity
8
0
100
AcDbLine
10
45.686661154349068
20
3.6680814934630828
30
0
11
51.186661154349054
21
3.6680814934630113
31
0
0
LINE
5
114
100
AcDbEntity
8
0
100
AcDbLine
10
52.186661154348272
20
2.6680814934637493
30
0
11
52.186661154348286
21
0.66808149476379897
31
0
0
ARC
5
115
100
AcDbEntity
8
0
100
AcDbCircle
10
51.186661154349054
20
2.6680814934637431
30
0
40
0.99999999999921485
210
-0
220
0
230
1
100
AcDbArc
50
0
51
90
0
ARC
5
116
100
AcDbEntity
8
0
100
AcDbCircle
10
45.686661154349068
20
2.6680842193622349
30
0
40
0.99999727410084782
210
0
220
-0
230
1
100
AcDbArc
50
90
51
180
0
LINE
5
117
100
AcDbEntity
8
0
100
AcDbLine
10
-0.0013388456511407817
20
-1.3319383439344628
30
0
11
42.686655027648293
21
-1.3319383439369177
31
0
0
ARC
5
118
100
AcDbEntity
8
0
100
AcDbCircle
10
42.686655027648293
20
0.6680705086630756
30
0
40
2.0000088525999931
210
0
220
0
230
1
100
AcDbArc
50
-90
51
0
0
ARC
5
119
100
AcDbEntity
8
0
100
AcDbCircle
10
54.18666115432886
20
0.66808149476381185
30
0
40
1.9999999999805773
210
0
220
0
230
1
100
AcDbArc
50
180
51
270.00000000055689
0
LINE
5
120
100
AcDbEntity
8
0
100
AcDbLine
10
-23.813570692651737
20
120.41812160667378
30
0
11
11.935929306848269
21
120.41812160666716
31
0
0
LINE
5
121
100
AcDbEntity
8
0
100
AcDbLine
10
11.935929306848269
20
120.41812160666716
30
0
11
34.436007349024692
21
97.91809315376716
31
0
0
ARC
5
122
100
AcDbEntity
8
0
100
AcDbCircle
10
147.63616115434456
20
0.66808149486809132
30
0
40
2.0000000000043143
210
0
220
0
230
1
100
AcDbArc
50
-90
51
0
0
LINE
5
123
100
AcDbEntity
8
0
100
AcDbLine
10
-2.0013388456511372
20
0.66806165606552104
30
0
11
-2.001338845651353
21
34.7680616561439
31
0
0
LINE
5
124
100
AcDbEntity
8
0
100
AcDbLine
10
149.63616115434886
20
0.66808149486810453
30
0
11
149.63616115434826
21
95.918093153767927
31
0
0
ARC
5
125
100
AcDbEntity
8
0
100
AcDbCircle
10
147.63616115434823
20
95.918093153767913
30
0
40
2.0000000000000107
210
0
220
-0
230
1
100
AcDbArc
50
0
51
89.999999999943824
0
LINE
5
126
100
AcDbEntity
8
0
100
AcDbLine
10
-25.81383884565146
20
76.868121060850811
30
0
11
-25.813838845651738
21
118.41812160667304
31
0
0
LINE
5
127
100
AcDbEntity
8
0
100
AcDbLine
10
-23.813570692651737
20
120.41812160667378
30
0
11
-23.813838845651102
21
120.41812160667371
31
0
0
ARC
5
128
100
AcDbEntity
8
0
100
AcDbCircle
10
-23.813838845651087
20
118.41812160667305
30
0
40
2.0000000000006501
210
0
220
0
230
1
100
AcDbArc
50
90.000000000000398
51
180
0
LINE
5
129
100
AcDbEntity
8
0
100
AcDbLine
10
34.436007349024692
20
97.91809315376716
30
0
11
147.63616115435019
21
97.918093153767927
31
0
0
LINE
5
130
100
AcDbEntity
8
0
100
AcDbLine
10
48.436661154348855
20
10.928942844935264
30
0
11
48.436661154349267
21
-3.5927798580092931
31
0
0
LINE
5
131
100
AcDbEntity
8
0
100
AcDbLine
10
123.82316115434887
20
-10.142302957582539
30
0
11
123.82316115434872
21
11.393586925466355
31
0
0
ARC
5
132
100
AcDbEntity
8
0
100
AcDbCircle
10
118.07316115436983
20
0.6680814948434578
30
0
40
1.9999999999796836
210
0
220
0
230
1
100
AcDbArc
50
270
51
360
0
LINE
5
133
100
AcDbEntity
8
0
100
AcDbLine
10
126.57316115434767
20
3.6680814935003978
30
0
11
121.07316115434961
21
3.668081493517199
31
0
0
ARC
5
134
100
AcDbEntity
8
0
100
AcDbCircle
10
126.57316115435007
20
2.668084219399943
30
0
40
0.9999972741004548
210
-0
220
0
230
1
100
AcDbArc
50
0
51
90.000000000137604
0
LINE
5
135
100
AcDbEntity
8
0
100
AcDbLine
10
120.07316115435218
20
2.6680814935006363
30
0
11
120.07316115435151
21
0.66808149480153256
31
0
0
ARC
5
136
100
AcDbEntity
8
0
100
AcDbCircle
10
129.57316728104939
20
0.668070508700781
30
0
40
2.0000088525987536
210
0
220
0
230
1
100
AcDbArc
50
180
51
270.00000000003666
0
LINE
5
137
100
AcDbEntity
8
0
100
AcDbLine
10
127.57315842845065
20
0.66807050870131235
30
0
11
127.57315842845053
21
2.6680842194007646
31
0
0
ARC
5
138
100
AcDbEntity
8
0
100
AcDbCircle
10
121.07316115434897
20
2.6680814935171564
30
0
40
1.0000000000000426
210
-0
220
0
230
1
100
AcDbArc
50
89.999999999963364
51
180
0
LINE
5
139
100
AcDbEntity
8
0
100
AcDbLine
10
147.63616115434456
20
-1.331918505136223
30
0
11
129.56425913821812
21
-1.3319185051364584
31
0
0
LINE
5
140
100
AcDbEntity
8
0
100
AcDbLine
10
118.07316115436983
20
-1.3319185051362259
30
0
11
54.1866611543483
21
-1.3319185051362319
31
0
0
ENDSEC
0
SECTION
2
OBJECTS
0
DICTIONARY
5
C
100
AcDbDictionary
3
ACAD_GROUP
350
D
3
ACAD_MLINESTYLE
350
17
0
DICTIONARY
5
D
100
AcDbDictionary
0
DICTIONARY
5
1A
330
C
100
AcDbDictionary
0
DICTIONARY
5
17
100
AcDbDictionary
0
ENDSEC
0
EOF
