0
SECTION
2
HEADER
9
$INSUNITS
70
4
9
$ACADVER
1
AC1014
9
$HANDSEED
5
FFFF
0
ENDSEC
0
SECTION
2
TABLES
0
TABLE
2
VPORT
5
8
100
AcDbSymbolTable
0
ENDTAB
0
TABLE
2
LTYPE
5
5
100
AcDbSymbolTable
0
LTYPE
5
14
100
AcDbSymbolTableRecord
100
AcDbLinetypeTableRecord
2
BYBLOCK
70
0
0
LTYPE
5
15
100
AcDbSymbolTableRecord
100
AcDbLinetypeTableRecord
2
BYLAYER
70
0
0
ENDTAB
0
TABLE
2
LAYER
5
2
100
AcDbSymbolTable
70
2
0
LAYER
5
50
100
AcDbSymbolTableRecord
100
AcDbLayerTableRecord
2
0
70
0
6
CONTINUOUS
0
ENDTAB
0
TABLE
2
STYLE
5
3
100
AcDbSymbolTable
70
1
0
STYLE
5
11
100
AcDbSymbolTableRecord
100
AcDbTextStyleTableRecord
2
STANDARD
70
0
0
ENDTAB
0
TABLE
2
VIEW
5
6
100
AcDbSymbolTable
70
0
0
ENDTAB
0
TABLE
2
UCS
5
7
100
AcDbSymbolTable
70
0
0
ENDTAB
0
TABLE
2
APPID
5
9
100
AcDbSymbolTable
70
2
0
APPID
5
12
100
AcDbSymbolTableRecord
100
AcDbRegAppTableRecord
2
ACAD
70
0
0
ENDTAB
0
TABLE
2
DIMSTYLE
5
A
100
AcDbSymbolTable
70
1
0
ENDTAB
0
TABLE
2
BLOCK_RECORD
5
1
100
AcDbSymbolTable
70
1
0
BLOCK_RECORD
5
1F
100
AcDbSymbolTableRecord
100
AcDbBlockTableRecord
2
*MODEL_SPACE
0
BLOCK_RECORD
5
1B
100
AcDbSymbolTableRecord
100
AcDbBlockTableRecord
2
*PAPER_SPACE
0
ENDTAB
0
ENDSEC
0
SECTION
2
BLOCKS
0
BLOCK
5
20
100
AcDbEntity
100
AcDbBlockBegin
2
*MODEL_SPACE
0
ENDBLK
5
21
100
AcDbEntity
100
AcDbBlockEnd
0
BLOCK
5
1C
100
AcDbEntity
100
AcDbBlockBegin
2
*PAPER_SPACE
0
ENDBLK
5
1D
100
AcDbEntity
100
AcDbBlockEnd
0
ENDSEC
0
SECTION
2
ENTITIES
0
LINE
5
100
100
AcDbEntity
8
0
100
AcDbLine
10
-25.813189838631988
20
95.91812106094892
30
0
11
-25.813189839079609
21
76.868121060948894
31
0
0
LINE
5
101
100
AcDbEntity
8
0
100
AcDbLine
10
-23.813189839079605
20
74.868121060903249
30
0
11
-18.288189839079607
21
74.868121060892349
31
0
0
LINE
5
102
100
AcDbEntity
8
0
100
AcDbLine
10
-16.288189839079603
20
72.868121060894268
30
0
11
-16.288189839065051
21
57.818121060892445
31
0
0
LINE
5
103
100
AcDbEntity
8
0
100
AcDbLine
10
-14.288189839065948
20
55.818121060893318
30
0
11
-13.525689839063407
21
55.818121060901007
31
0
0
LINE
5
104
100
AcDbEntity
8
0
100
AcDbLine
10
-11.525689839111255
20
53.818101259205292
30
0
11
-11.525838845292046
21
38.768101259969207
31
0
0
LINE
5
105
100
AcDbEntity
8
0
100
AcDbLine
10
-9.5258388452921015
20
36.768081458464515
30
0
11
-4.0008913390918774
21
36.76808145873418
31
0
0
LINE
5
106
100
AcDbEntity
8
0
100
AcDbLine
10
-2.0008913391956518
20
34.768055212004676
30
0
11
-2.0013388456511318
21
0.66810770545799258
31
0
0
ARC
5
107
100
AcDbEntity
8
0
100
AcDbCircle
10
-23.813189839079598
20
76.868121060903263
30
0
40
2.0000000000000107
210
0
220
0
230
1
100
AcDbArc
50
180
51
269.99999999999983
0
ARC
5
108
100
AcDbEntity
8
0
100
AcDbCircle
10
-18.288189839079617
20
72.868121060892335
30
0
40
2.0000000000000151
210
0
220
-0
230
1
100
AcDbArc
50
0
51
89.999999999999702
0
ARC
5
109
100
AcDbEntity
8
0
100
AcDbCircle
10
-14.288189839065041
20
57.818121060894619
30
0
40
2.0000000000000107
210
0
220
0
230
1
100
AcDbArc
50
180
51
269.99999999997402
0
ARC
5
110
100
AcDbEntity
8
0
100
AcDbCircle
10
-13.525689839011557
20
53.818121060692818
30
0
40
1.9999999999983262
210
-0
220
0
230
1
100
AcDbArc
50
-0.00056727075184451149
51
90.00000000148539
0
ARC
5
111
100
AcDbEntity
8
0
100
AcDbCircle
10
-9.5258388453901599
20
38.768081458478896
30
0
40
1.9999999999999118
210
0
220
0
230
1
100
AcDbArc
50
179.99943272924818
51
270.00000000280914
0
ARC
5
112
100
AcDbEntity
8
0
100
AcDbCircle
10
-4.0008913389960972
20
34.768081458755915
30
0
40
1.9999999999726683
210
-0
220
0
230
1
100
AcDbArc
50
-0.00075191336557988721
51
90.000000002743889
0
ARC
5
113
100
AcDbEntity
8
0
100
AcDbCircle
10
-0.0013388458233580881
20
0.66808145870465963
30
0
40
1.9999999999999969
210
0
220
0
230
1
100
AcDbArc
50
179.99924808566499
51
269.9999999999996
0
ARC
5
114
100
AcDbEntity
8
0
100
AcDbCircle
10
166.68666116748665
20
0.66808145870307123
30
0
40
2.0000000000000369
210
0
220
0
230
1
100
AcDbArc
50
-90.000000381304233
51
0
0
LINE
5
115
100
AcDbEntity
8
0
100
AcDbLine
10
33.436312016122457
20
97.918081458478838
30
0
11
109.42422412497783
21
97.918081458478753
31
0
0
LINE
5
116
100
AcDbEntity
8
0
100
AcDbLine
10
143.9268006047927
20
0.66808155387736767
30
0
11
143.92680060479267
21
1.6680815602575048
31
0
0
LINE
5
117
100
AcDbEntity
8
0
100
AcDbLine
10
144.92680060479259
20
2.6680815602575949
30
0
11
150.42680060479259
21
2.6680815602574737
31
0
0
LINE
5
118
100
AcDbEntity
8
0
100
AcDbLine
10
151.42680060479273
20
1.6680815602574504
30
0
11
151.42680060479273
21
0.66808154694746458
31
0
0
LINE
5
119
100
AcDbEntity
8
0
100
AcDbLine
10
44.436661167725127
20
0.66808145870424962
30
0
11
44.436661167725148
21
2.6680814935356114
31
0
0
LINE
5
120
100
AcDbEntity
8
0
100
AcDbLine
10
45.436661167725148
20
3.6680814935355994
30
0
11
50.936661167725163
21
3.6680814935355648
31
0
0
LINE
5
121
100
AcDbEntity
8
0
100
AcDbLine
10
51.936661167725148
20
2.668081493535543
30
0
11
51.936661167725148
21
0.66808149486770185
31
0
0
ARC
5
122
100
AcDbEntity
8
0
100
AcDbCircle
10
50.936661167725163
20
2.6680814935355501
30
0
40
0.99999999999998757
210
-0
220
0
230
1
100
AcDbArc
50
0
51
90
0
ARC
5
123
100
AcDbEntity
8
0
100
AcDbCircle
10
45.436661167725148
20
2.6680814935356016
30
0
40
0.99999999999999756
210
0
220
-0
230
1
100
AcDbArc
50
90
51
180
0
LINE
5
124
100
AcDbEntity
8
0
100
AcDbLine
10
-0.0013388458233700863
20
-1.3319185412953423
30
0
11
42.436661167725127
21
-1.3319185412957191
31
0
0
LINE
5
125
100
AcDbEntity
8
0
100
AcDbLine
10
53.936661169066404
20
-1.3319185051323092
30
0
11
141.92680060613387
21
-1.3319184461225961
31
0
0
ARC
5
126
100
AcDbEntity
8
0
100
AcDbCircle
10
144.92680060479262
20
1.6680815602574961
30
0
40
1.0000000000000986
210
0
220
0
230
1
100
AcDbArc
50
90.000000000001634
51
180
0
ARC
5
127
100
AcDbEntity
8
0
100
AcDbCircle
10
150.42680060479262
20
1.6680815602574453
30
0
40
1.000000000000103
210
-0
220
0
230
1
100
AcDbArc
50
0
51
90.000000000001634
0
LINE
5
128
100
AcDbEntity
8
0
100
AcDbLine
10
153.42680059148262
20
-1.3319184530525463
30
0
11
166.68666115417662
21
-1.3319185412969656
31
0
0
ARC
5
129
100
AcDbEntity
8
0
100
AcDbCircle
10
42.436661167725127
20
0.66808145870426805
30
0
40
1.9999999999999871
210
0
220
0
230
1
100
AcDbArc
50
270
51
360
0
ARC
5
130
100
AcDbEntity
8
0
100
AcDbCircle
10
53.936661167725134
20
0.66808149486768376
30
0
40
1.999999999999984
210
0
220
0
230
1
100
AcDbArc
50
180
51
270.00000003842456
0
ARC
5
131
100
AcDbEntity
8
0
100
AcDbCircle
10
141.92680060479262
20
0.66808155387737311
30
0
40
1.9999999999999689
210
0
220
0
230
1
100
AcDbArc
50
270.00000003842393
51
360
0
ARC
5
132
100
AcDbEntity
8
0
100
AcDbCircle
10
153.42680060479262
20
0.66808154694744648
30
0
40
1.9999999999998685
210
0
220
0
230
1
100
AcDbArc
50
180
51
269.99999961869656
0
LINE
5
133
100
AcDbEntity
8
0
100
AcDbLine
10
109.42422412497783
20
97.918081458478753
30
0
11
166.68666115623915
21
97.918081458024901
31
0
0
LINE
5
134
100
AcDbEntity
8
0
100
AcDbLine
10
168.68666115612356
20
95.918081457812008
30
0
11
168.6866611674867
21
0.66808145894118087
31
0
0
ARC
5
135
100
AcDbEntity
8
0
100
AcDbCircle
10
166.6866611558417
20
95.918081458261213
30
0
40
2.0000000002818652
210
-0
220
0
230
1
100
AcDbArc
50
0
51
89.999999988613922
0
LINE
5
136
100
AcDbEntity
8
0
100
AcDbLine
10
-25.813189838631988
20
95.91812106094892
30
0
11
-25.813189838121382
21
118.41808331400281
31
0
0
LINE
5
137
100
AcDbEntity
8
0
100
AcDbLine
10
-23.813189838076259
20
120.41808331395721
30
0
11
10.936310161423746
21
120.41808331316881
31
0
0
LINE
5
138
100
AcDbEntity
8
0
100
AcDbLine
10
10.936310161423746
20
120.41808331316881
30
0
11
33.436447938784063
21
97.917945535817253
31
0
0
ARC
5
139
100
AcDbEntity
8
0
100
AcDbCircle
10
-23.813189838121534
20
118.41808331395748
30
0
40
1.9999999999997264
210
0
220
-0
230
1
100
AcDbArc
50
89.999999998702947
51
180
0
ENDSEC
0
SECTION
2
OBJECTS
0
DICTIONARY
5
C
100
AcDbDictionary
3
ACAD_GROUP
350
D
3
ACAD_MLINESTYLE
350
17
0
DICTIONARY
5
D
100
AcDbDictionary
0
DICTIONARY
5
1A
330
C
100
AcDbDictionary
0
DICTIONARY
5
17
100
AcDbDictionary
0
ENDSEC
0
EOF
