0
SECTION
2
HEADER
9
$INSUNITS
70
4
9
$ACADVER
1
AC1014
9
$HANDSEED
5
FFFF
0
ENDSEC
0
SECTION
2
TABLES
0
TABLE
2
VPORT
5
8
100
AcDbSymbolTable
0
ENDTAB
0
TABLE
2
LTYPE
5
5
100
AcDbSymbolTable
0
LTYPE
5
14
100
AcDbSymbolTableRecord
100
AcDbLinetypeTableRecord
2
BYBLOCK
70
0
0
LTYPE
5
15
100
AcDbSymbolTableRecord
100
AcDbLinetypeTableRecord
2
BYLAYER
70
0
0
ENDTAB
0
TABLE
2
LAYER
5
2
100
AcDbSymbolTable
70
2
0
LAYER
5
50
100
AcDbSymbolTableRecord
100
AcDbLayerTableRecord
2
0
70
0
6
CONTINUOUS
0
ENDTAB
0
TABLE
2
STYLE
5
3
100
AcDbSymbolTable
70
1
0
STYLE
5
11
100
AcDbSymbolTableRecord
100
AcDbTextStyleTableRecord
2
STANDARD
70
0
0
ENDTAB
0
TABLE
2
VIEW
5
6
100
AcDbSymbolTable
70
0
0
ENDTAB
0
TABLE
2
UCS
5
7
100
AcDbSymbolTable
70
0
0
ENDTAB
0
TABLE
2
APPID
5
9
100
AcDbSymbolTable
70
2
0
APPID
5
12
100
AcDbSymbolTableRecord
100
AcDbRegAppTableRecord
2
ACAD
70
0
0
ENDTAB
0
TABLE
2
DIMSTYLE
5
A
100
AcDbSymbolTable
70
1
0
ENDTAB
0
TABLE
2
BLOCK_RECORD
5
1
100
AcDbSymbolTable
70
1
0
BLOCK_RECORD
5
1F
100
AcDbSymbolTableRecord
100
AcDbBlockTableRecord
2
*MODEL_SPACE
0
BLOCK_RECORD
5
1B
100
AcDbSymbolTableRecord
100
AcDbBlockTableRecord
2
*PAPER_SPACE
0
ENDTAB
0
ENDSEC
0
SECTION
2
BLOCKS
0
BLOCK
5
20
100
AcDbEntity
100
AcDbBlockBegin
2
*MODEL_SPACE
0
ENDBLK
5
21
100
AcDbEntity
100
AcDbBlockEnd
0
BLOCK
5
1C
100
AcDbEntity
100
AcDbBlockBegin
2
*PAPER_SPACE
0
ENDBLK
5
1D
100
AcDbEntity
100
AcDbBlockEnd
0
ENDSEC
0
SECTION
2
ENTITIES
0
LINE
5
100
100
AcDbEntity
8
0
100
AcDbLine
10
0
20
0
30
0
11
0
21
38.100000000000001
31
0
0
LINE
5
101
100
AcDbEntity
8
0
100
AcDbLine
10
0
20
38.100000000000001
30
0
11
-9.5250000000000021
21
38.100000000000001
31
0
0
LINE
5
102
100
AcDbEntity
8
0
100
AcDbLine
10
-9.5250000000000021
20
38.100000000000001
30
0
11
-9.5250000000000021
21
57.149999999999999
31
0
0
LINE
5
103
100
AcDbEntity
8
0
100
AcDbLine
10
-9.5250000000000021
20
57.149999999999999
30
0
11
-14.287500000000001
21
57.149999999999999
31
0
0
LINE
5
104
100
AcDbEntity
8
0
100
AcDbLine
10
-14.287500000000001
20
57.149999999999999
30
0
11
-14.287500000000001
21
76.200000000000003
31
0
0
LINE
5
105
100
AcDbEntity
8
0
100
AcDbLine
10
-14.287500000000001
20
76.200000000000003
30
0
11
-23.812500000000007
21
76.200000000000003
31
0
0
LINE
5
106
100
AcDbEntity
8
0
100
AcDbLine
10
-23.812500000000007
20
76.200000000000003
30
0
11
-23.812500000000007
21
95.25
31
0
0
LINE
5
107
100
AcDbEntity
8
0
100
AcDbLine
10
0
20
0
30
0
11
166.68800000000002
21
0
31
0
0
LINE
5
108
100
AcDbEntity
8
0
100
AcDbLine
10
166.68800000000002
20
0
30
0
11
166.68800000000002
21
95.25
31
0
0
LINE
5
109
100
AcDbEntity
8
0
100
AcDbLine
10
166.68800000000002
20
95.25
30
0
11
-23.812500000000007
21
95.25
31
0
0
LWPOLYLINE
5
110
100
AcDbEntity
8
0
100
AcDbPolyline
90
28
70
1
43
0.0
10
-2
20
-5.5511151231257827e-16
10
-2
20
34.099999999999994
42
0.41421356237309587
10
-4
20
36.100000000000001
10
-9.5249999999999986
20
36.100000000000001
42
-0.4142135623730947
10
-11.525000000000002
20
38.099999999999994
10
-11.525
20
53.149999999999991
42
0.41421356237309276
10
-13.525
20
55.149999999999991
10
-14.287500000000001
20
55.149999999999999
42
-0.41421356237309309
10
-16.287500000000009
20
57.149999999999999
10
-16.287500000000001
20
72.200000000000003
42
0.41421356237309243
10
-18.287500000000001
20
74.200000000000003
10
-23.812500000000007
20
74.200000000000003
42
-0.41421356237309048
10
-25.812500000000004
20
76.199999999999989
10
-25.812500000000007
20
95.25
10
-25.812500000000007
20
97.25
10
-25.812500000000004
20
117.75
42
-0.4142135623730957
10
-23.812500000000007
20
119.75
10
10.109072875253812
20
119.75
42
-0.19891236737965651
10
11.523286437626908
20
119.16421356237309
10
14.272049693443915
20
116.41545030655608
10
32.851713562373085
20
97.835786437626922
42
0.19891236737966017
10
34.265927124746185
20
97.25
10
109.43799999999999
20
97.25
10
166.68800000000002
20
97.25
42
-0.41421356237309503
10
168.68799999999999
20
95.25
10
168.68799999999999
20
-9.322471934791752e-16
42
-0.41421356237309548
10
166.68800000000002
20
-1.9999999999999971
10
3.9197953067848358e-17
20
-2.0000000000000004
42
-0.41421356237309515
0
LINE
5
111
100
AcDbEntity
8
0
100
AcDbLine
10
-25.812500000000007
20
97.25
30
0
11
33.4375
21
97.25
31
0
0
LINE
5
112
100
AcDbEntity
8
0
100
AcDbLine
10
33.4375
20
97.25
30
0
11
60.541539752519213
21
97.25
31
0
0
ENDSEC
0
SECTION
2
OBJECTS
0
DICTIONARY
5
C
100
AcDbDictionary
3
ACAD_GROUP
350
D
3
ACAD_MLINESTYLE
350
17
0
DICTIONARY
5
D
100
AcDbDictionary
0
DICTIONARY
5
1A
330
C
100
AcDbDictionary
0
DICTIONARY
5
17
100
AcDbDictionary
0
ENDSEC
0
EOF
