0
SECTION
2
HEADER
9
$INSUNITS
70
4
9
$ACADVER
1
AC1014
9
$HANDSEED
5
FFFF
0
ENDSEC
0
SECTION
2
TABLES
0
TABLE
2
VPORT
5
8
100
AcDbSymbolTable
0
ENDTAB
0
TABLE
2
LTYPE
5
5
100
AcDbSymbolTable
0
LTYPE
5
14
100
AcDbSymbolTableRecord
100
AcDbLinetypeTableRecord
2
BYBLOCK
70
0
0
LTYPE
5
15
100
AcDbSymbolTableRecord
100
AcDbLinetypeTableRecord
2
BYLAYER
70
0
0
ENDTAB
0
TABLE
2
LAYER
5
2
100
AcDbSymbolTable
70
2
0
LAYER
5
50
100
AcDbSymbolTableRecord
100
AcDbLayerTableRecord
2
0
70
0
6
CONTINUOUS
0
ENDTAB
0
TABLE
2
STYLE
5
3
100
AcDbSymbolTable
70
1
0
STYLE
5
11
100
AcDbSymbolTableRecord
100
AcDbTextStyleTableRecord
2
STANDARD
70
0
0
ENDTAB
0
TABLE
2
VIEW
5
6
100
AcDbSymbolTable
70
0
0
ENDTAB
0
TABLE
2
UCS
5
7
100
AcDbSymbolTable
70
0
0
ENDTAB
0
TABLE
2
APPID
5
9
100
AcDbSymbolTable
70
2
0
APPID
5
12
100
AcDbSymbolTableRecord
100
AcDbRegAppTableRecord
2
ACAD
70
0
0
ENDTAB
0
TABLE
2
DIMSTYLE
5
A
100
AcDbSymbolTable
70
1
0
ENDTAB
0
TABLE
2
BLOCK_RECORD
5
1
100
AcDbSymbolTable
70
1
0
BLOCK_RECORD
5
1F
100
AcDbSymbolTableRecord
100
AcDbBlockTableRecord
2
*MODEL_SPACE
0
BLOCK_RECORD
5
1B
100
AcDbSymbolTableRecord
100
AcDbBlockTableRecord
2
*PAPER_SPACE
0
ENDTAB
0
ENDSEC
0
SECTION
2
BLOCKS
0
BLOCK
5
20
100
AcDbEntity
100
AcDbBlockBegin
2
*MODEL_SPACE
0
ENDBLK
5
21
100
AcDbEntity
100
AcDbBlockEnd
0
BLOCK
5
1C
100
AcDbEntity
100
AcDbBlockBegin
2
*PAPER_SPACE
0
ENDBLK
5
1D
100
AcDbEntity
100
AcDbBlockEnd
0
ENDSEC
0
SECTION
2
ENTITIES
0
LWPOLYLINE
5
100
100
AcDbEntity
8
0
100
AcDbPolyline
90
39
70
1
43
0.0
10
-5.5511151231257827e-16
20
1.9999999999999998
10
-4.7184478546569153e-15
20
97.250000000000014
42
-0.41421356237309681
10
2
20
99.25
10
58.047499999992375
20
99.25
10
80.547499999999985
20
121.74999999999999
10
116.2975
20
121.74999999999999
42
-0.41421356237309503
10
118.29749999999999
20
119.75
10
118.29749999999999
20
99.249999999999986
10
118.29749999999999
20
82.199999999999989
42
0.41421356237309503
10
120.29749999999999
20
80.199999999999989
10
125.82250000000001
20
80.199999999999989
42
-0.41421356237310025
10
127.82249999999999
20
78.199999999999989
10
127.82249999999999
20
63.150000000000006
42
0.41421356237309764
10
129.82249999999999
20
61.149999999999991
10
130.58500000000001
20
61.149999999999991
42
-0.41421356237310025
10
132.58500000000001
20
59.149999999999999
10
132.58500000000001
20
44.100000000000001
42
0.41421356237309631
10
134.58499999999998
20
42.100000000000001
10
140.11000000000001
20
42.100000000000001
42
-0.4142135623730937
10
142.11000000000001
20
40.099999999999994
10
142.11000000000001
20
1.9999999999999993
42
-0.41421356237309681
10
140.11000000000001
20
2.7755575615628914e-16
10
103.00000060200699
20
9.9920072216264089e-15
42
-0.41421365053497222
10
101.00000060200708
20
2.0000006020069043
10
101.00000120401373
20
3.9999997735023536
42
0.41421365053496906
10
100.00000120401378
20
5.000000074505806
10
94.5
20
5.0000000745058131
42
0.41421356237309798
10
93.5
20
4.000000074505806
10
93.5
20
2
42
-0.4142135623730967
10
91.5
20
0
10
31.550000000000004
20
1.6653345369377348e-15
42
-0.41421356237309437
10
29.550000000000001
20
1.9999999999999991
10
29.550000000000001
20
4.000000074505806
42
0.41421356237309209
10
28.550000000000001
20
5.000000074505806
10
23.050000000000001
20
5.000000074505806
42
0.41421356237309209
10
22.050000000000001
20
4.000000074505806
10
22.050000000000001
20
2
42
-0.41421356237309453
10
20.049999999999997
20
1.6653345369377348e-15
10
2
20
0
42
-0.4142135623730952
0
ENDSEC
0
SECTION
2
OBJECTS
0
DICTIONARY
5
C
100
AcDbDictionary
3
ACAD_GROUP
350
D
3
ACAD_MLINESTYLE
350
17
0
DICTIONARY
5
D
100
AcDbDictionary
0
DICTIONARY
5
1A
330
C
100
AcDbDictionary
0
DICTIONARY
5
17
100
AcDbDictionary
0
ENDSEC
0
EOF
