<?xml version="1.0" encoding="UTF-8" standalone="no"?>
<!-- Created with Inkscape (http://www.inkscape.org/) -->

<svg
   xmlns:dc="http://purl.org/dc/elements/1.1/"
   xmlns:cc="http://creativecommons.org/ns#"
   xmlns:rdf="http://www.w3.org/1999/02/22-rdf-syntax-ns#"
   xmlns:svg="http://www.w3.org/2000/svg"
   xmlns="http://www.w3.org/2000/svg"
   xmlns:sodipodi="http://sodipodi.sourceforge.net/DTD/sodipodi-0.dtd"
   xmlns:inkscape="http://www.inkscape.org/namespaces/inkscape"
   version="1.1"
   id="svg10"
   width="1024"
   height="1024"
   viewBox="0 0 716.8 716.8"
   sodipodi:docname="SISK_logo.svg"
   inkscape:version="0.92.3 (2405546, 2018-03-11)">
  <metadata
     id="metadata16">
    <rdf:RDF>
      <cc:Work
         rdf:about="">
        <dc:format>image/svg+xml</dc:format>
        <dc:type
           rdf:resource="http://purl.org/dc/dcmitype/StillImage" />
        <dc:title></dc:title>
      </cc:Work>
    </rdf:RDF>
  </metadata>
  <defs
     id="defs14" />
  <sodipodi:namedview
     pagecolor="#ffffff"
     bordercolor="#666666"
     borderopacity="1"
     objecttolerance="10"
     gridtolerance="10"
     guidetolerance="10"
     inkscape:pageopacity="0"
     inkscape:pageshadow="2"
     inkscape:window-width="1200"
     inkscape:window-height="1857"
     id="namedview12"
     showgrid="false"
     scale-x="0.7"
     inkscape:zoom="0.58984375"
     inkscape:cx="602.49969"
     inkscape:cy="146.64861"
     inkscape:window-x="-8"
     inkscape:window-y="-8"
     inkscape:window-maximized="1"
     inkscape:current-layer="svg10" />
  <path
     style="fill:#000000"
     d="m 223.91159,864.26915 c 1.2375,-0.2384 3.2625,-0.2384 4.5,0 1.2375,0.2383 0.225,0.4333 -2.25,0.4333 -2.475,0 -3.4875,-0.195 -2.25,-0.4333 z m 115.25,-174.8802 c -2.475,-0.2128 -10.35,-0.87 -17.5,-1.4603 -54.68843,-4.5154 -109.64144,-23.9187 -156.41456,-55.2283 -26.08355,-17.4602 -55.98162,-43.3253 -72.505901,-62.7255 -24.98888,-29.3381 -48.60883,-68.5281 -59.90805,-99.399 -9.37049,-25.6014 -17.39643,-57.749 -20.87177,-83.601 -1.91039,-14.2109 -1.58695,-57.2942 0.55178,-73.5 8.63396,-65.4219 31.13139,-119.2693 71.86157,-172 16.849921,-21.8145 51.088991,-53.8821 73.932881,-69.244 28.61711,-19.2443 57.86111,-33.4299 90.85405,-44.0714 20.49656,-6.6109 33.885,-9.6224 60.54943,-13.6198 42.75188,-6.4090996 96.39972,-2.5344 138.95057,10.0357 51.96484,15.351 95.80659,39.9046 135.52253,75.8995 21.72681,19.6911 36.6443,37.3523 54.47997,64.5 19.93669,30.3456 33.18241,57.1591 41.87088,84.7596 3.96649,12.6003 11.3344,44.4134 13.14108,56.7404 3.72301,25.4023 3.70643,68.7887 -0.0354,92.5 -5.72471,36.277 -19.28194,77.2382 -35.51058,107.2902 -20.61319,38.1712 -46.91374,71.0835 -78.46852,98.1949 -54.85926,47.1342 -109.51128,71.4514 -186.61096,83.0316 -9.74045,1.4629 -44.64906,2.6921 -53.88904,1.8974 z m 54,-32.7796 c 59.29661,-8.52 109.1484,-29.644 155.64582,-65.9528 27.52555,-21.4941 50.72037,-47.6492 70.80241,-79.8386 19.40991,-31.1121 30.20856,-56.2415 38.56398,-89.7418 5.96702,-23.9242 7.36423,-37.202 7.42932,-70.6013 0.0623,-31.9418 -0.55044,-38.3856 -5.95408,-62.6197 -2.48444,-11.1421 -9.1243,-33.8669 -12.38295,-42.3803 -7.97455,-20.834 -21.98206,-47.2632 -34.45008,-65 -20.3319,-28.9239 -39.27441,-50.3413 -59.55072,-67.3314 -44.05956,-36.9188 -89.08526,-58.0163 -143.1037,-67.0536 -35.22949,-5.8939 -63.6947,-6.5156 -97,-2.1185 -73.21493,9.6661 -139.95288,44.4871 -188.88195,98.5505 -18.44376,20.3792 -29.904931,36.7542 -46.861471,66.953 -21.84053,38.8968 -36.65814,96.5411 -36.50149,142 0.26173,75.9564 31.70138,153.0399 85.195191,208.881 22.74085,23.7386 51.3138,45.6495 78.78373,60.4144 37.61519,20.2178 70.59681,30.7827 114.7323,36.7515 13.17044,1.7812 58.7205,1.216 73.53369,-0.9124 z m -68.5,-17.235 c -1.65,-0.2269 -6.6,-0.886 -11,-1.4647 -41.52623,-5.4614 -81.73791,-20.5614 -119.66397,-44.9353 -26.9639,-17.3289 -46.29365,-34.047 -65.80251,-56.912 -20.1024,-23.5605 -38.831181,-54.4021 -49.091801,-80.8418 -7.13284,-18.38 -14.67399,-48.6823 -18.10376,-72.7457 -1.64566,-11.546 -1.61276,-48.8771 0.0546,-62 5.97992,-47.064 22.50148,-92.2045 46.746261,-127.7208 14.31462,-20.9696 21.36713,-29.7517 35.85693,-44.6505 43.46211,-44.6891 97.99439,-73.6864 158.00421,-84.0182 24.13497,-4.1552 53.60936,-5.2752 81.10478,-3.0818 25.17914,2.0086 60.86709,10.6489 83.39522,20.1906 28.41073,12.0333 59.18077,31.824 84,54.0272 37.17235,33.2543 70.78052,85.1831 84.29976,130.2535 10.9769,36.5948 14.29431,59.7707 13.44621,93.9375 -0.58417,23.5346 -2.38536,36.6538 -8.2471,60.0692 -12.30613,49.1583 -35.07602,90.0669 -71.65093,128.7288 -38.7057,40.9144 -93.87927,72.7659 -147.8479,85.3522 -19.42382,4.5299 -30.8733,5.6245 -62,5.9275 -16.775,0.1632 -31.85,0.1112 -33.5,-0.1157 z m 57.64405,-19.4374 c 32.68642,-3.276 61.43612,-11.8454 95.35595,-28.4227 25.84803,-12.6325 47.92919,-28.1412 68.34549,-48.0024 43.68279,-42.4951 72.04686,-97.258 80.5593,-155.537 8.29181,-56.7684 -5.13488,-122.9673 -35.18987,-173.5 -13.01174,-21.8772 -39.61057,-54.0819 -57.34859,-69.4352 -9.07472,-7.8547 -30.8664,-23.759 -40.93637,-29.8767 -29.69187,-18.0384 -69.71963,-31.1722 -107.14055,-35.1547 -14.14397,-1.5052 -49.14958,-1.2532 -64.52502,0.4645 -51.73589,5.78 -99.48031,25.775 -141.74087,59.36 -25.13875,19.9781 -55.91456,57.7696 -70.96481,87.1421 -14.602571,28.4988 -26.254411,67.6031 -29.647821,99.5 -1.45125,13.6412 -0.60001,51.5208 1.42697,63.5 5.58039,32.9792 17.56018,66.9718 32.616401,92.549 28.99646,49.2584 67.90658,85.0818 120.30634,110.7625 30.25995,14.8301 65.38129,24.6322 96.7394,26.9994 10.79195,0.8146 42.66253,0.6014 52.14405,-0.3488 z m -52.64405,-18.081 c -21.31734,-1.7992 -42.23836,-6.5123 -64.12663,-14.4465 -30.77744,-11.1564 -66.31873,-32.8143 -90.05756,-54.8787 -9.04867,-8.4104 -18.95195,-20.2531 -17.85433,-21.3508 0.82053,-0.8206 386.93271,-1.5251 390.28852,-0.7121 1.2375,0.2998 2.25,1.1327 2.25,1.8509 0,1.9213 -26.13233,27.1674 -36,34.7791 -25.15964,19.4075 -47.86217,31.7257 -78.83022,42.7727 -29.95253,10.6846 -68.83193,15.0945 -105.66978,11.9854 z m 123.73581,-50.8459 c 0.9547,-0.019 2.91901,-1.8231 4.36514,-4.0084 2.97846,-4.5007 2.76833,-7.3256 -0.85809,-11.5359 l -2.24286,-2.6039 -100.5,0.056 -100.5,0.056 -2.75,3.0166 c -1.5125,1.6592 -2.75,4.157 -2.75,5.5506 0,3.0148 2.42327,8.0125 4.42929,9.1349 1.00645,0.5631 175.2379,0.8537 200.80652,0.3349 z m -127.98147,-58.7499 -183.24567,-0.2907 -2.85922,-3.947 c -4.21523,-5.819 -11.48174,-18.0487 -11.0064,-18.524 0.2264,-0.2264 101.76183,-0.625 225.63429,-0.8857 177.80368,-0.3743 225.22266,-0.2152 225.22266,0.7557 0,0.6765 -3.10732,6.0896 -6.90515,12.0293 l -6.90515,10.7993 -28.34485,0.1769 c -15.58967,0.097 -110.8054,0.046 -211.59051,-0.1138 z m -167.75434,-51.2403 c -17.30632,-4.561 -23.72088,-8.2476 -37.60036,-21.6099 -5.8302,-5.6129 -11.60009,-10.5227 -12.82198,-10.9105 -2.19809,-0.6976 -2.19113,-0.7279 0.65781,-2.8648 1.58369,-1.1879 4.56499,-4.0408 6.62511,-6.3398 2.06012,-2.299 6.98427,-6.7636 10.94255,-9.9214 3.95828,-3.1578 8.0275,-6.6674 9.04272,-7.7992 1.68112,-1.8741 1.94886,-1.9116 3,-0.4207 10.91386,15.4798 16.7245,20.4392 26.77139,22.8494 12.40601,2.9762 26.59724,-1.4067 32.05615,-9.9004 2.60601,-4.0547 2.92623,-5.3403 2.58625,-10.3829 -0.471,-6.9861 -4.33069,-13.1361 -10.30404,-16.4184 -2.17558,-1.1954 -11.85823,-4.2026 -21.517,-6.6826 -19.98923,-5.1325 -24.38832,-6.6953 -31.52651,-11.2005 -7.82817,-4.9406 -15.84526,-15.7132 -19.6003,-26.3372 -3.01359,-8.5262 -3.50276,-24.6113 -1.02669,-33.7609 5.54224,-20.4797 21.8911,-35.7703 43.74253,-40.9112 10.52313,-2.4757 28.43606,-1.5693 38.85534,1.9662 10.46322,3.5505 19.91364,9.8199 27.17475,18.0278 9.95316,11.2509 9.9768,10.2097 -0.45723,20.139 -8.53796,8.125 -18.33016,16.433 -19.36865,16.433 -0.26501,0 -0.7361,-1.2713 -1.04687,-2.8252 -0.84288,-4.2144 -9.01768,-12.7088 -14.98236,-15.5681 -14.27874,-6.8449 -30.5101,-2.8459 -35.8098,8.8225 -3.39518,7.4753 -1.93304,15.6708 3.73315,20.9248 3.41099,3.1628 9.95587,5.3867 29.71951,10.0982 18.07347,4.3086 26.50004,8.4059 34.76314,16.9029 16.57221,17.0413 20.3191,42.6277 9.53469,65.1097 -4.04708,8.4369 -8.04104,13.585 -14.97179,19.2983 -6.56976,5.4157 -18.6749,11.7422 -26.23566,13.7116 -8.03058,2.0917 -23.1402,1.8884 -31.93585,-0.4297 z m 192.5,-0.1077 c -4.125,-1.0739 -11.24512,-3.7441 -15.82249,-5.9337 -7.08725,-3.3901 -10.09278,-5.714 -20.25,-15.657 -6.56013,-6.4218 -11.92751,-12.2149 -11.92751,-12.8735 0,-1.7989 15.57148,-16.3522 23.13525,-21.6224 l 6.63526,-4.6233 4.26814,6.445 c 7.91298,11.9489 17.09282,17.3881 30.58626,18.1228 12.37983,0.6741 21.1552,-3.1511 25.93344,-11.3046 4.16154,-7.1011 3.08607,-15.0943 -2.86968,-21.3282 -4.92759,-5.1578 -8.85739,-6.688 -31.31388,-12.1929 -22.6826,-5.5604 -27.68578,-7.6795 -35.9628,-15.2318 -17.75598,-16.2013 -22.20458,-42.7963 -11.07778,-66.2262 6.4631,-13.6094 18.71015,-23.7779 35.16579,-29.1974 11.12542,-3.6641 29.08533,-3.8694 41,-0.4688 15.04299,4.2934 25.96807,11.277 36.37879,23.2542 3.36667,3.8732 6.12121,7.3962 6.12121,7.8288 0,1.4423 -17.44178,17.5113 -23.7256,21.8582 l -6.19647,4.2866 -2.13175,-4.1786 c -3.28326,-6.4357 -10.38529,-13.4059 -16.23242,-15.931 -7.19858,-3.1087 -17.36162,-3.7516 -23.32218,-1.4753 -5.71123,2.1812 -11.26009,6.9528 -13.04054,11.214 -3.33974,7.9932 -0.30126,18.6706 6.43219,22.6032 1.80516,1.0543 12.85503,4.2689 24.55526,7.1436 24.29944,5.9703 30.58246,8.7569 40.37594,17.9074 18.49429,17.28 21.60144,48.3729 7.07929,70.8414 -8.95042,13.8481 -25.18822,25.045 -40.22738,27.7392 -9.43345,1.69 -25.01797,1.2258 -33.56634,-0.9997 z m -99.00306,-28.6873 c -0.002,-16.3625 -0.2905,-37.4 -0.64181,-46.75 l -0.63876,-17 18.98122,-0.3094 18.98122,-0.3094 0.6313,23.2186 c 0.34722,12.7702 0.34763,33.9469 9.2e-4,47.0593 l -0.63038,23.8409 h -18.34033 -18.34032 l -0.003,-29.75 z m 197.00306,-66.25 v -96 h 19 19 l 0.0703,35.75 c 0.0386,19.6625 0.40161,36.5933 0.80657,37.624 0.63076,1.6053 1.52934,0.9603 6.26889,-4.5 3.04292,-3.5057 7.48924,-9.074 9.88071,-12.374 7.88131,-10.8755 38.72594,-48.9163 43.16164,-53.2314 l 4.34958,-4.2313 8.98116,1.0511 c 8.18158,0.9576 24.66411,0.5347 30.23116,-0.7757 3.21084,-0.7557 2.99057,2.654 -0.37229,5.763 -3.21388,2.9712 -23.70552,26.7203 -28.43793,32.9586 -8.87626,11.7007 -34.28176,42.2981 -41.599,50.1003 -4.48757,4.785 -11.31076,12.9114 -15.16263,18.0586 -3.85187,5.1472 -9.51772,12.1765 -12.59078,15.6205 l -5.58738,6.2619 v 31.9622 31.9622 h -19 -19 z m 94.39759,82.6746 c -19.66165,-25.9363 -34.73729,-45.2447 -38.04926,-48.7322 l -3.37848,-3.5576 3.37197,-1.608 c 2.21872,-1.058 4.40312,-3.4351 6.38689,-6.9501 2.57957,-4.5708 14.48247,-18.9224 16.19767,-19.5299 0.31549,-0.1118 2.82362,3.0031 5.57362,6.9218 2.75,3.9188 13.10127,17.9602 23.00283,31.2032 9.90155,13.243 20.12754,27.0677 22.72441,30.7215 2.59687,3.6539 7.70335,9.8925 11.34773,13.8638 5.49217,5.9847 6.39502,7.4385 5.27559,8.4951 -0.96765,0.9133 -7.19169,1.41 -21.95297,1.7516 l -20.6024,0.4769 z m 31.91712,-67.1383 c -3.48048,-1.5137 -6.31471,-5.989 -6.31471,-9.9709 0,-4.029 4.78584,-8.5931 9.70173,-9.2524 3.72501,-0.4995 4.54757,-0.2176 7.25,2.4849 2.58287,2.5828 3.04827,3.8098 3.04827,8.0363 0,4.3422 -0.39832,5.3232 -3.07673,7.5769 -3.442,2.8962 -5.92985,3.1601 -10.60856,1.1252 z m -312.60307,-30.5485 c -6.84529,-5.3845 -2.08038,-16.9878 6.97607,-16.9878 3.51403,0 9.73593,4.6087 10.81597,8.0116 0.74604,2.3505 -1.75885,7.3533 -4.72047,9.4277 -3.18676,2.2321 -9.95725,1.9982 -13.07157,-0.4515 z m -10.93079,-52.8626 -0.28085,-28.1265 18.62783,7e-4 18.62783,6e-4 0.39495,18.25 c 0.21722,10.0375 0.22883,22.1191 0.0258,26.848 l -0.36915,8.5981 -14.65363,0.654 c -8.05949,0.3597 -16.32724,0.9347 -18.37277,1.2778 l -3.71915,0.6238 -0.28085,-28.1265 z m -116.78085,-56.5866 c 0,-1.4855 9.70285,-16.3879 13.04695,-20.0386 1.80767,-1.9734 3.00654,-1.9979 90.14254,-1.842 48.57078,0.087 140.60657,0.1994 204.52397,0.25 l 116.21346,0.092 7.53654,9.9517 c 4.1451,5.4735 7.53654,10.6485 7.53654,11.5 0,1.393 -22.0152,1.5483 -219.5,1.5483 -191.86533,0 -219.5,-0.184 -219.5,-1.4614 z m 32.5,-40.1874 c -1.1,-0.2999 -2.36837,-0.8925 -2.8186,-1.3169 -0.90175,-0.8499 23.17825,-22.6967 35.8186,-32.4968 15.51548,-12.0291 47.58926,-29.5424 65.5,-35.7649 27.03847,-9.3937 55.26474,-13.9416 87.5,-14.0983 69.26648,-0.3367 120.90363,19.3971 174.27473,66.6012 12.31208,10.8894 15.71842,14.6313 14.46246,15.8873 -0.89797,0.898 -371.49213,2.0732 -374.73719,1.1884 z m 288.77328,-23.4975 c 1.04282,-0.5581 2.52999,-2.532 3.30481,-4.3864 1.7101,-4.0928 0.74101,-7.2846 -3.13827,-10.336 l -2.70954,-2.1313 h -98.94206 -98.94207 l -3.04827,3.0483 c -2.67052,2.6705 -2.98095,3.5501 -2.50505,7.0982 0.29877,2.2276 1.5065,5.0754 2.68383,6.3286 l 2.1406,2.2786 99.63,-0.4426 c 64.61445,-0.2871 100.29636,-0.7993 101.52602,-1.4574 z"
     id="path3801"
     inkscape:connector-curvature="0" />
</svg>
